<svg id="flat" height="512" viewBox="0 0 512 512" width="512" xmlns="http://www.w3.org/2000/svg"><path d="m296 136v40h-80v-40l32-21.34 8-5.33 8 5.33z" fill="#56679c"/><path d="m264 114.66v61.34h-16v-61.34l8-5.33z" fill="#445496"/><path d="m264 104 64-54.857 64 54.857h16v-24l-56-48h-48l-56 48v24z" fill="#56679c"/><path d="m401 111 55 33 24 104h-104v-112z" fill="#56679c"/><path d="m194.775 240.223h16v53.103h-16z" fill="#f5a431" transform="matrix(.707 -.707 .707 .707 -129.247 221.522)"/><path d="m282.674 258.774h53.103v16h-53.103z" fill="#f5a431" transform="matrix(.707 -.707 .707 .707 -98.067 296.809)"/><path d="m16 464h264v24h-264z" fill="#cad8ed"/><path d="m320 488 24-64h136v64z" fill="#56679c"/><path d="m376 248h104v176h-104z" fill="#445496"/><g fill="#8796c4"><circle cx="256" cy="112" r="16"/><circle cx="400" cy="112" r="16"/><circle cx="328" cy="40" r="16"/></g><path d="m416 384h16v16h-16z" fill="#51a37e"/><path d="m440 384h16v16h-16z" fill="#51a37e"/><path d="m16 344h260a20 20 0 0 1 20 20 20 20 0 0 1 -20 20h-260z" fill="#cad8ed"/><path d="m216 384 16 24h24l16-24z" fill="#a6bce3"/><path d="m232 408h24v56h-24z" fill="#91abd9"/><path d="m208 272h96v72h-96z" fill="#f7c04a"/><path d="m64 272h96v72h-96z" fill="#f7c04a"/><path d="m96 272v32l16-8 16 8v-32z" fill="#f7dfa1"/><path d="m240 160h32v32h-32z" fill="#cad8ed"/><path d="m240 192h32l8 8v40h-48v-40z" fill="#b36f42"/><path d="m152 384 16 24h24l16-24z" fill="#a6bce3"/><path d="m168 408h24v56h-24z" fill="#91abd9"/><path d="m88 384 16 24h24l16-24z" fill="#a6bce3"/><path d="m104 408h24v56h-24z" fill="#91abd9"/><path d="m24 384 16 24h24l16-24z" fill="#a6bce3"/><path d="m40 408h24v56h-24z" fill="#91abd9"/></svg>