<svg id="Capa_1" enable-background="new 0 0 512 512" height="512" viewBox="0 0 512 512" width="512" xmlns="http://www.w3.org/2000/svg"><g><g><path d="m256 293.501c-141.387 0-244.214-125.428-223.538-162.364 43.799-78.246 127.491-131.137 223.538-131.137 96.105 0 179.839 52.955 223.617 131.278 20.627 36.904-82.23 162.223-223.617 162.223z" fill="#f8e771"/><path d="m512 256c0 26.051-3.891 51.191-11.129 74.871-5.031 16.469-11.672 32.231-19.75 47.109-8.25 15.2-147.391 40.664-225.121 40.664s-216.871-25.464-225.109-40.664c-3.289-6.031-6.332-12.21-9.121-18.531-14-31.629-21.77-66.629-21.77-103.449 0-46.219 12.25-89.57 33.68-127 44.121 77.07 127.16 129 222.32 129s178.211-51.93 222.32-129c21.43 37.43 33.68 80.781 33.68 127z" fill="#f1c818"/><path d="m481.262 377.699c-4.192 7.741-8.765 15.241-13.701 22.475-1.294 1.896-8.02-.853-9.363 1.006-1.305 1.806 2.775 8.22 1.424 9.99-1.015 1.33-2.043 2.65-3.083 3.959-4.97 6.263-10.233 12.285-15.763 18.048-3.858 4.02-9.001-1.982-13.11 1.78-4 3.663-6.963 17.096-11.191 20.503-15.576 12.549-32.653 23.311-50.918 31.974-10.873 5.157-25.471 3.266-37.121 6.87-12.725 3.937-22.57 13.211-36.058 15.131-11.883 1.69-24.029 2.565-36.378 2.565-12.963 0-25.702-.964-38.147-2.824-51.504-7.697-169.968-103.947-173.484-109.105-4.909-7.202-9.459-14.667-13.631-22.372z" fill="#e38d22"/></g><g><path d="m326.054 156.442-15.365 23.296-113.26 171.005-8.425-23.296c-8.675-24.04-31.723-40.149-57.745-40.149-6.94 0-13.382.991-19.332 3.222l-56.257 20.817 222.553-211.152 14.127 26.022 12.392 12.392z" fill="#dce0ef"/><path d="m292.349 126.207-14.127-26.022-146.964 139.436v47.677c26.022 0 49.07 16.108 57.745 40.149l8.425 23.296 113.26-171.005 15.365-23.296-21.313-17.843z" fill="#b9c1df"/><g fill="#a1aed5"><path d="m292.349 126.207 15.861 3.965-146.965 139.437-29.987 17.69c26.022 0 49.07 16.108 57.745 40.149l8.425 23.296 113.26-171.005 15.365-23.296-21.313-17.843z"/><path d="m416.265 169.826-74.35 36.431-31.227-26.518-18.836-16.108c1.81-2.488 21.638-29.751 19.828-27.262 3.22-2.478 5.452-6.196 5.452-10.16 0-2.974-1.239-5.948-2.974-8.179l17.1-17.843c2.557 2.093 87.566 71.731 85.007 69.639z"/><path d="m366.698 250.124h24.783v61.958h-24.783z"/></g><path d="m341.915 206.257v56.258h74.35v-92.689z" fill="#dce0ef"/><path d="m317.132 398.823v88.394h-24.783v22.203c26.014-3.698 50.77-11.297 73.652-22.203h-24.085v-88.394z" fill="#686e91"/><path d="m416.265 398.823v56.794c8.748-7.033 17.034-14.618 24.783-22.722v-34.072z" fill="#4d5375"/><ellipse cx="304.74" cy="126.207" fill="#dce0ef" rx="37.175" ry="37.175" transform="matrix(.16 -.987 .987 .16 131.349 406.797)"/><path d="m467.484 400.281v-63.416h-175.135v74.35h167.226c2.728-3.573 5.368-7.216 7.909-10.934z" fill="#b9c1df"/><path d="m467.484 400.281v-63.416h-88.394v74.35h80.485c2.728-3.573 5.368-7.216 7.909-10.934z" fill="#a1aed5"/><path d="m131.258 262.515c-47.906 0-86.741 38.835-86.741 86.742v51.025c39.327 57.534 101.512 98.196 173.483 108.907v-159.932c-.001-47.906-38.836-86.742-86.742-86.742z" fill="#fbf5eb"/><path d="m131.258 262.515v217.069c26.387 14.753 55.648 24.977 86.741 29.604v-159.931c0-47.906-38.836-86.742-86.741-86.742z" fill="#dce0ef"/><path d="m131.258 386.432c-20.5 0-37.175-16.676-37.175-37.175s16.675-37.175 37.175-37.175c20.499 0 37.175 16.676 37.175 37.175-.001 20.499-16.676 37.175-37.175 37.175z" fill="#b9c1df"/><path d="m168.432 349.257c0-20.499-16.675-37.175-37.175-37.175v74.35c20.5 0 37.175-16.676 37.175-37.175z" fill="#a1aed5"/></g><g fill="#fff"><path d="m74.379 215.443h-1.524c-6.754 0-12.226-5.477-12.226-12.227v-1.523h-8.715v1.523c0 6.75-5.477 12.227-12.227 12.227h-1.527v8.715h1.527c6.75 0 12.227 5.472 12.227 12.226v1.528h8.715v-1.528c0-6.754 5.472-12.226 12.226-12.226h1.524z"/><path d="m110.227 121.214h-1.524c-6.754 0-12.226-5.477-12.226-12.227v-1.523h-8.715v1.523c0 6.75-5.477 12.227-12.227 12.227h-1.527v8.715h1.527c6.75 0 12.227 5.472 12.227 12.226v1.528h8.715v-1.528c0-6.754 5.472-12.226 12.226-12.226h1.524z"/><path d="m203.034 99.781h-1.524c-6.754 0-12.226-5.477-12.226-12.227v-1.523h-8.715v1.523c0 6.75-5.477 12.227-12.227 12.227h-1.527v8.715h1.527c6.75 0 12.227 5.472 12.227 12.226v1.528h8.715v-1.528c0-6.754 5.472-12.226 12.226-12.226h1.524z"/><path d="m286.158 39.987h-1.524c-6.754 0-12.226-5.477-12.226-12.227v-1.523h-8.715v1.523c0 6.75-5.477 12.227-12.227 12.227h-1.527v8.715h1.527c6.75 0 12.227 5.472 12.227 12.226v1.528h8.715v-1.528c0-6.754 5.472-12.226 12.226-12.226h1.524z"/></g></g></svg>