<svg height="512pt" viewBox="-2 0 512 512" width="512pt" xmlns="http://www.w3.org/2000/svg"><path d="m379.617188 291.308594c0 79.917968-108.519532 109.191406-129.078126 114.019531-1.972656.46875-3.359374 2.242187-3.335937 4.273437v18.535157h-141.242187v-83.859375c0-4.875 3.953124-8.828125 8.828124-8.828125h48.800782c24.195312 0 57.128906-8.828125 57.128906-44.140625zm0 0" fill="#f29c1f"/><path d="m158.925781 384c-4.167969 0-7.769531-2.917969-8.636719-6.996094-.867187-4.078125 1.242188-8.207031 5.054688-9.898437.167969-.070313 19.84375-9.21875 21.433594-26.980469 1.242187-13.8125-7.847656-37.605469-58.183594-72.453125-118.5625-82.082031-118.5625-137.996094-118.5625-174.980469-.449219-11.839844 4.058594-23.328125 12.433594-31.707031 8.375-8.375 19.867187-12.882813 31.703125-12.433594 4.875 0 8.828125 3.953125 8.828125 8.828125s-3.953125 8.828125-8.828125 8.828125c-7.132813-.378906-14.089844 2.289063-19.140625 7.339844-5.050782 5.050781-7.71875 12.011719-7.339844 19.144531 0 33.304688 0 83.648438 110.953125 160.464844 46.132813 31.941406 68.234375 61.792969 65.703125 88.734375-2.648438 28.066406-30.640625 40.820313-31.832031 41.351563-1.128907.5-2.351563.761718-3.585938.757812zm0 0" fill="#5e5f62"/><path d="m114.789062 368.226562h37.84375c4.875 0 8.828126 3.949219 8.828126 8.824219v51.085938h-55.5v-51.085938c0-4.875 3.953124-8.824219 8.828124-8.824219zm0 0" fill="#d25627"/><path d="m412.191406 176.109375 7.238282 7.238281v28.691406c-.015626 3.570313-2.179688 6.78125-5.484376 8.132813-3.304687 1.351563-7.097656.582031-9.613281-1.953125l-32.75-32.75c-3.304687-3.300781-5.160156-7.777344-5.160156-12.449219 0-4.667969 1.855469-9.148437 5.160156-12.445312l31.691407-31.691407.882812.882813-2.382812 7.0625 17.65625 17.65625h8.210937l-15.449219 15.445313c-1.683594 1.71875-1.683594 4.464843 0 6.179687zm0 0" fill="#bdc3c7"/><path d="m502.496094 185.027344-33.191406 33.191406c-2.523438 2.542969-6.332032 3.320312-9.652344 1.96875-3.316406-1.351562-5.5-4.566406-5.53125-8.148438v-28.691406l7.769531-7.679687c1.589844-1.753907 1.589844-4.425781 0-6.179688l-15.007813-15.003906h7.238282l17.65625-17.65625-2.121094-6.445313 1.589844-1.5 31.25 31.25c3.304687 3.296876 5.164062 7.777344 5.164062 12.445313 0 4.671875-1.859375 9.148437-5.164062 12.449219zm0 0" fill="#bdc3c7"/><path d="m459.066406 48.550781v75.035157h-44.140625v-69.78125" fill="#d25627"/><path d="m220.71875 30.898438h118.617188v35.308593h-118.617188zm0 0" fill="#d25627"/><path d="m97.285156 17.65625h123.433594c4.875 0 8.828125 3.949219 8.828125 8.828125v44.136719c0 4.875-3.953125 8.828125-8.828125 8.828125h-123.433594zm0 0" fill="#f29c1f"/><path d="m105.960938 423.722656h141.242187c4.875 0 8.828125 3.953125 8.828125 8.828125v35.3125h-158.898438v-35.3125c0-4.875 3.953126-8.828125 8.828126-8.828125zm0 0" fill="#e57e25"/><path d="m273.246094 216.628906c8.621094-3.164062 17.738281-4.78125 26.921875-4.765625 43.878906 0 79.449219 35.570313 79.449219 79.445313 0 1.414062 0 2.738281-.089844 4.0625-.175782 2.558594-.351563 5.121094-.707032 7.589844-.085937.441406-.175781.796874-.261718 1.238281-.175782 1.058593-.355469 2.117187-.53125 3.089843-8.125 40.015626-45.261719 67.359376-85.886719 63.230469-40.625-4.125-71.507813-38.375-71.421875-79.210937 0-3.035156.175781-6.074219.53125-9.089844" fill="#d25627"/><path d="m326.652344 256-213.382813-157.378906-49.925781 49.929687 210.34375 178.070313zm0 0" fill="#d25627"/><path d="m436.996094 17.65625c-1.46875-.105469-2.945313-.105469-4.414063 0l-13.929687 4.640625c-8.316406 2.773437-17.027344 4.1875-25.792969 4.1875s-17.472656-1.414063-25.785156-4.1875l-13.941407-4.640625c-11.480468-1.609375-22.902343 3.316406-29.617187 12.769531s-7.597656 21.859375-2.296875 32.171875 15.90625 16.808594 27.5 16.851563c1.472656.105469 2.945312.105469 4.414062 0l13.929688-4.644531c8.320312-2.773438 17.027344-4.183594 25.796875-4.183594 8.761719 0 17.46875 1.414062 25.785156 4.183594l13.9375 4.644531c11.484375 1.605469 22.90625-3.316407 29.617188-12.769531 6.714843-9.457032 7.601562-21.863282 2.300781-32.175782-5.304688-10.308594-15.910156-16.808594-27.503906-16.847656zm0 0" fill="#f29c1f"/><path d="m476.191406 141.242188-17.65625 17.65625h-43.519531l-17.65625-17.65625 2.382813-7.0625 6.445312-19.421876h61.175781l6.707031 20.039063zm0 0" fill="#f29c1f"/><path d="m111.609375 97.101562h37.429687c.703126 0 1.402344-.085937 2.085938-.253906l27.601562-6.902344c3.925782-.984374 6.679688-4.507812 6.683594-8.554687v-65.652344c.007813-4.066406-2.761718-7.613281-6.710937-8.589843l-27.574219-6.890626c-.683594-.1718745-1.382812-.257812-2.085938-.257812h-78.386718c-14.628906 0-26.484375 11.855469-26.484375 26.484375v61.792969c0 4.875 3.953125 8.824218 8.828125 8.824218h12.003906" fill="#d25627"/><path d="m436.996094 17.65625c-1.46875-.105469-2.945313-.105469-4.414063 0l-13.929687 4.640625c-8.316406 2.773437-17.027344 4.1875-25.792969 4.1875s-17.472656-1.414063-25.785156-4.1875l-13.941407-4.640625c-11.480468-1.609375-22.902343 3.316406-29.617187 12.769531s-7.597656 21.859375-2.296875 32.171875 15.90625 16.808594 27.5 16.851563c1.472656.105469 2.945312.105469 4.414062 0l13.929688-4.644531c8.320312-2.773438 17.027344-4.183594 25.796875-4.183594 8.761719 0 17.46875 1.414062 25.785156 4.183594l13.9375 4.644531c11.484375 1.605469 22.90625-3.316407 29.617188-12.769531 6.714843-9.457032 7.601562-21.863282 2.300781-32.175782-5.304688-10.308594-15.910156-16.808594-27.503906-16.847656zm0 0" fill="#f29c1f"/><path d="m123.617188 123.585938c.003906 16.847656-11.894532 31.347656-28.414063 34.636718-16.523437 3.292969-33.066406-5.546875-39.515625-21.109375s-1.007812-33.515625 12.996094-42.875c14.003906-9.363281 32.671875-7.527343 44.585937 4.382813 6.636719 6.613281 10.359375 15.597656 10.347657 24.964844zm0 0" fill="#2c2f38"/><path d="m344.304688 291.308594c0 24.378906-19.757813 44.140625-44.136719 44.140625-24.375 0-44.136719-19.761719-44.136719-44.140625 0-24.375 19.761719-44.136719 44.136719-44.136719 24.378906 0 44.136719 19.761719 44.136719 44.136719zm0 0" fill="#2c2f38"/><path d="m46.648438 512h37.246093v-35.308594h-25.9375c-8.105469-.003906-15.167969 5.511719-17.132812 13.371094l-2.738281 10.964844c-.660157 2.636718-.070313 5.433594 1.605468 7.574218 1.671875 2.144532 4.238282 3.398438 6.957032 3.398438zm0 0" fill="#bdc3c7"/><path d="m306.515625 512h-37.242187v-35.308594h25.933593c8.105469-.003906 15.167969 5.511719 17.132813 13.371094l2.738281 10.964844c.660156 2.636718.070313 5.433594-1.605469 7.574218-1.671875 2.144532-4.238281 3.398438-6.957031 3.398438zm0 0" fill="#bdc3c7"/><path d="m273.6875 512h-194.207031v-35.308594c0-9.753906 7.902343-17.65625 17.652343-17.65625h158.898438c9.75 0 17.65625 7.902344 17.65625 17.65625zm0 0" fill="#d25627"/></svg>